<?xml version="1.0" encoding="UTF-8"?><svg id="Ebene_2" xmlns="http://www.w3.org/2000/svg" viewBox="0 0 153.96 28.38"><defs><style>.cls-1{fill:#000;stroke:#000;stroke-miterlimit:10;stroke-width:.5px;}</style></defs><g id="Logo_Header"><g><path class="cls-1" d="M2.97,12.41c1.81-1.78,4.01-2.67,6.6-2.67,1.88,0,3.5,.54,4.88,1.63v-1.3h4.55V27.64h-4.55v-1.14c-1.34,1.08-2.96,1.63-4.88,1.63-1.7,0-3.26-.41-4.7-1.24s-2.56-1.95-3.39-3.36-1.24-2.95-1.24-4.62c0-2.55,.91-4.72,2.72-6.5Zm3.18,9.91c.96,.96,2.1,1.44,3.42,1.44s2.5-.48,3.45-1.44c.95-.96,1.43-2.09,1.43-3.41s-.48-2.43-1.43-3.39c-.95-.96-2.1-1.44-3.45-1.44s-2.47,.48-3.42,1.44c-.96,.96-1.44,2.09-1.44,3.39s.48,2.45,1.44,3.41Z"/><path class="cls-1" d="M23.62,10.06h4.55v1.3c.49-.36,.89-.63,1.18-.81,.3-.18,.75-.36,1.36-.54s1.27-.27,2-.27c2.52,0,4.37,.87,5.56,2.62,.77-.93,1.68-1.6,2.72-2.01s2.09-.61,3.15-.61c2.07,0,3.74,.64,5,1.92s1.89,3.23,1.89,5.85v10.14h-4.55v-9.39c0-.86-.09-1.57-.26-2.15-.17-.58-.42-1.01-.75-1.28s-.66-.47-1-.57c-.34-.1-.74-.15-1.2-.15-2.44,0-3.67,1.36-3.67,4.08v9.47h-4.55v-9.39c0-.86-.09-1.57-.26-2.15s-.42-1.01-.75-1.28c-.33-.28-.66-.47-1-.57-.34-.1-.74-.15-1.2-.15-2.43,0-3.65,1.36-3.65,4.08v9.47h-4.55V10.06Z"/><path class="cls-1" d="M55.29,.25h4.55V11.36c1.34-1.08,2.96-1.63,4.88-1.63,2.59,0,4.79,.89,6.6,2.67,1.81,1.78,2.72,3.95,2.72,6.5,0,1.66-.41,3.2-1.24,4.62-.83,1.42-1.96,2.54-3.39,3.36s-3,1.24-4.7,1.24c-1.92,0-3.54-.54-4.88-1.63v1.14h-4.55V.25Zm6.06,22.14c.95,.91,2.07,1.36,3.37,1.36s2.46-.48,3.42-1.44c.95-.96,1.43-2.09,1.43-3.41s-.48-2.43-1.43-3.39c-.95-.96-2.09-1.44-3.42-1.44s-2.42,.46-3.37,1.37c-.95,.92-1.45,2-1.51,3.25v.42c.06,1.26,.56,2.35,1.51,3.26Z"/><path class="cls-1" d="M77.46,2.23c.55-.55,1.24-.82,2.06-.82s1.48,.27,2.02,.81,.81,1.22,.81,2.04-.27,1.5-.81,2.05-1.22,.82-2.02,.82-1.5-.28-2.06-.83-.83-1.23-.83-2.04,.28-1.48,.83-2.03Zm-.23,7.83h4.55V27.64h-4.55V10.06Z"/><path class="cls-1" d="M84.39,10.06h2.78V4.1h4.53v5.96h4.68v4.37h-4.68v7.03c0,1.58,.66,2.37,1.97,2.37,.34,0,.69-.02,1.06-.05,.37-.03,.65-.06,.86-.08l.31-.05v4.03c-.89,.3-2.06,.45-3.52,.45-1.67,0-2.96-.51-3.86-1.54s-1.35-2.41-1.35-4.17v-7.99h-2.78v-4.37Z"/><path class="cls-1" d="M100.34,2.23c.55-.55,1.24-.82,2.06-.82s1.48,.27,2.02,.81,.81,1.22,.81,2.04-.27,1.5-.81,2.05-1.22,.82-2.02,.82-1.5-.28-2.06-.83-.83-1.23-.83-2.04,.28-1.48,.83-2.03Zm-.23,7.83h4.55V27.64h-4.55V10.06Z"/><path class="cls-1" d="M111.86,10.06l4.48,11.92,4.52-11.92h4.95l-7.06,17.58h-4.77l-7.08-17.58h4.97Z"/><path class="cls-1" d="M126.63,15.47c.43-1.13,1.03-2.11,1.8-2.96s1.73-1.52,2.88-2.02c1.15-.5,2.41-.75,3.77-.75,1.69,0,3.21,.42,4.57,1.26,1.36,.84,2.42,1.96,3.16,3.35s1.12,2.91,1.12,4.56c0,.52-.04,1-.11,1.45h-13.41c.26,1.11,.83,1.99,1.69,2.66,.86,.66,1.93,.99,3.21,.99,.84,0,1.65-.16,2.42-.49,.77-.33,1.4-.81,1.9-1.46l3.11,2.48c-.79,1.12-1.85,2-3.16,2.64-1.31,.64-2.72,.96-4.23,.96-1.73,0-3.32-.4-4.75-1.19s-2.56-1.89-3.38-3.29c-.82-1.4-1.23-2.94-1.23-4.62,0-1.24,.21-2.42,.64-3.55Zm12.71,1.54c-.13-.89-.61-1.64-1.43-2.24-.82-.6-1.78-.9-2.87-.9s-1.97,.29-2.76,.86-1.36,1.33-1.7,2.29h8.76Z"/><path class="cls-1" d="M148.82,22.99c.55-.55,1.24-.82,2.06-.82s1.48,.27,2.02,.81,.81,1.22,.81,2.04-.27,1.5-.81,2.05-1.22,.82-2.02,.82-1.51-.28-2.06-.83-.83-1.23-.83-2.04,.28-1.48,.83-2.03Z"/></g></g></svg>